<?xml version="1.0" encoding="UTF-8"?><svg xmlns="http://www.w3.org/2000/svg" xmlns:xlink="http://www.w3.org/1999/xlink" fill-opacity="1" color-rendering="auto" color-interpolation="auto" text-rendering="auto" stroke="black" stroke-linecap="square" width="546" stroke-miterlimit="10" shape-rendering="auto" stroke-opacity="1" fill="black" stroke-dasharray="none" font-weight="normal" stroke-width="1" height="614" font-family="'Dialog'" font-style="normal" stroke-linejoin="miter" font-size="12px" stroke-dashoffset="0" image-rendering="auto">
  <!--Generated by ySVG 2.5-->
  <defs id="genericDefs"/>
  <g>
    <defs id="defs1">
      <clipPath clipPathUnits="userSpaceOnUse" id="clipPath1">
        <path d="M0 0 L546 0 L546 614 L0 614 L0 0 Z"/>
      </clipPath>
      <clipPath clipPathUnits="userSpaceOnUse" id="clipPath2">
        <path d="M160 97 L706 97 L706 711 L160 711 L160 97 Z"/>
      </clipPath>
      <clipPath clipPathUnits="userSpaceOnUse" id="clipPath3">
        <path d="M327 565 L327 676 L447 676 L447 565 Z"/>
      </clipPath>
      <clipPath clipPathUnits="userSpaceOnUse" id="clipPath4">
        <path d="M175 112 L175 187 L309 187 L309 112 Z"/>
      </clipPath>
      <clipPath clipPathUnits="userSpaceOnUse" id="clipPath5">
        <path d="M327 266 L327 377 L447 377 L447 266 Z"/>
      </clipPath>
      <clipPath clipPathUnits="userSpaceOnUse" id="clipPath6">
        <path d="M512 260 L512 346 L632 346 L632 260 Z"/>
      </clipPath>
      <clipPath clipPathUnits="userSpaceOnUse" id="clipPath7">
        <path d="M523 565 L523 695 L643 695 L643 565 Z"/>
      </clipPath>
      <clipPath clipPathUnits="userSpaceOnUse" id="clipPath8">
        <path d="M327 424 L327 493 L447 493 L447 424 Z"/>
      </clipPath>
      <clipPath clipPathUnits="userSpaceOnUse" id="clipPath9">
        <path d="M418 112 L418 209 L518 209 L518 112 Z"/>
      </clipPath>
      <clipPath clipPathUnits="userSpaceOnUse" id="clipPath10">
        <path d="M188 431 L188 528 L295 528 L295 431 Z"/>
      </clipPath>
      <clipPath clipPathUnits="userSpaceOnUse" id="clipPath11">
        <path d="M188 268 L188 384 L295 384 L295 268 Z"/>
      </clipPath>
    </defs>
    <g fill="white" text-rendering="geometricPrecision" shape-rendering="geometricPrecision" transform="translate(-160,-97)" stroke="white">
      <rect x="160" width="546" height="614" y="97" clip-path="url(#clipPath2)" stroke="none"/>
    </g>
    <g fill="rgb(255,255,204)" text-rendering="geometricPrecision" shape-rendering="geometricPrecision" transform="matrix(1,0,0,1,-160,-97)" stroke="rgb(255,255,204)">
      <rect x="328" width="118" height="109" y="566" clip-path="url(#clipPath2)" stroke="none"/>
      <rect x="327" y="565" clip-path="url(#clipPath2)" fill="white" width="1" height="111" stroke="none"/>
      <rect x="328" y="565" clip-path="url(#clipPath2)" fill="white" width="118" height="1" stroke="none"/>
      <rect x="328" y="675" clip-path="url(#clipPath2)" fill="rgb(178,178,142)" width="119" height="1" stroke="none"/>
      <rect x="446" y="565" clip-path="url(#clipPath2)" fill="rgb(178,178,142)" width="1" height="110" stroke="none"/>
    </g>
    <g font-size="13px" stroke-linecap="butt" transform="matrix(1,0,0,1,-160,-97)" text-rendering="geometricPrecision" font-family="sans-serif" shape-rendering="geometricPrecision" font-weight="bold" stroke-miterlimit="1.45">
      <text x="360.4541" xml:space="preserve" y="582.8184" clip-path="url(#clipPath3)" stroke="none">D entity</text>
    </g>
    <g text-rendering="geometricPrecision" shape-rendering="geometricPrecision" transform="matrix(1,0,0,1,-160,-97)">
      <line y2="590" fill="none" x1="328" clip-path="url(#clipPath3)" x2="446" y1="590"/>
      <text stroke-linecap="butt" x="332" y="607.1621" clip-path="url(#clipPath3)" font-family="sans-serif" stroke="none" stroke-miterlimit="1.45" xml:space="preserve"> </text>
      <line y2="614" fill="none" x1="328" clip-path="url(#clipPath3)" x2="446" y1="614"/>
      <text stroke-linecap="butt" x="332" y="631.2949" clip-path="url(#clipPath3)" font-family="sans-serif" stroke="none" stroke-miterlimit="1.45" xml:space="preserve"> </text>
      <rect x="176" y="113" clip-path="url(#clipPath2)" fill="rgb(255,255,204)" width="132" height="73" stroke="none"/>
      <rect x="175" y="112" clip-path="url(#clipPath2)" fill="white" width="1" height="75" stroke="none"/>
      <rect x="176" y="112" clip-path="url(#clipPath2)" fill="white" width="132" height="1" stroke="none"/>
      <rect x="176" y="186" clip-path="url(#clipPath2)" fill="rgb(178,178,142)" width="133" height="1" stroke="none"/>
      <rect x="308" y="112" clip-path="url(#clipPath2)" fill="rgb(178,178,142)" width="1" height="74" stroke="none"/>
    </g>
    <g font-size="13px" stroke-linecap="butt" transform="matrix(1,0,0,1,-160,-97)" text-rendering="geometricPrecision" font-family="sans-serif" shape-rendering="geometricPrecision" font-weight="bold" stroke-miterlimit="1.45">
      <text x="188.9082" xml:space="preserve" y="130.3184" clip-path="url(#clipPath4)" stroke="none">java.lang.Object</text>
    </g>
    <g text-rendering="geometricPrecision" shape-rendering="geometricPrecision" transform="matrix(1,0,0,1,-160,-97)">
      <line y2="138" fill="none" x1="176" clip-path="url(#clipPath4)" x2="308" y1="138"/>
      <text stroke-linecap="butt" x="180" y="154.6621" clip-path="url(#clipPath4)" font-family="sans-serif" stroke="none" stroke-miterlimit="1.45" xml:space="preserve"> </text>
      <line y2="162" fill="none" x1="176" clip-path="url(#clipPath4)" x2="308" y1="162"/>
      <text stroke-linecap="butt" x="180" y="178.7949" clip-path="url(#clipPath4)" font-family="sans-serif" stroke="none" stroke-miterlimit="1.45" xml:space="preserve"> </text>
      <rect x="328" y="267" clip-path="url(#clipPath2)" fill="rgb(255,255,204)" width="118" height="109" stroke="none"/>
      <rect x="327" y="266" clip-path="url(#clipPath2)" fill="white" width="1" height="111" stroke="none"/>
      <rect x="328" y="266" clip-path="url(#clipPath2)" fill="white" width="118" height="1" stroke="none"/>
      <rect x="328" y="376" clip-path="url(#clipPath2)" fill="rgb(178,178,142)" width="119" height="1" stroke="none"/>
      <rect x="446" y="266" clip-path="url(#clipPath2)" fill="rgb(178,178,142)" width="1" height="110" stroke="none"/>
    </g>
    <g font-size="13px" stroke-linecap="butt" transform="matrix(1,0,0,1,-160,-97)" text-rendering="geometricPrecision" font-family="sans-serif" shape-rendering="geometricPrecision" font-weight="bold" stroke-miterlimit="1.45">
      <text x="360.8223" xml:space="preserve" y="283.5684" clip-path="url(#clipPath5)" stroke="none">A entity</text>
    </g>
    <g text-rendering="geometricPrecision" shape-rendering="geometricPrecision" transform="matrix(1,0,0,1,-160,-97)">
      <line y2="291" fill="none" x1="328" clip-path="url(#clipPath5)" x2="446" y1="291"/>
      <text stroke-linecap="butt" x="332" y="307.9121" clip-path="url(#clipPath5)" font-family="sans-serif" stroke="none" stroke-miterlimit="1.45" xml:space="preserve">-field1</text>
      <text stroke-linecap="butt" x="332" y="322.0449" clip-path="url(#clipPath5)" font-family="sans-serif" stroke="none" stroke-miterlimit="1.45" xml:space="preserve">-field2</text>
      <line y2="329" fill="none" x1="328" clip-path="url(#clipPath5)" x2="446" y1="329"/>
      <text stroke-linecap="butt" x="332" y="346.1777" clip-path="url(#clipPath5)" font-family="sans-serif" stroke="none" stroke-miterlimit="1.45" xml:space="preserve"> </text>
      <rect x="513" y="261" clip-path="url(#clipPath2)" fill="rgb(255,255,204)" width="118" height="84" stroke="none"/>
      <rect x="512" y="260" clip-path="url(#clipPath2)" fill="white" width="1" height="86" stroke="none"/>
      <rect x="513" y="260" clip-path="url(#clipPath2)" fill="white" width="118" height="1" stroke="none"/>
      <rect x="513" y="345" clip-path="url(#clipPath2)" fill="rgb(178,178,142)" width="119" height="1" stroke="none"/>
      <rect x="631" y="260" clip-path="url(#clipPath2)" fill="rgb(178,178,142)" width="1" height="85" stroke="none"/>
    </g>
    <g font-size="13px" stroke-linecap="butt" transform="matrix(1,0,0,1,-160,-97)" text-rendering="geometricPrecision" font-family="sans-serif" shape-rendering="geometricPrecision" font-weight="bold" stroke-miterlimit="1.45">
      <text x="546.5142" xml:space="preserve" y="278.0684" clip-path="url(#clipPath6)" stroke="none">B entity</text>
    </g>
    <g text-rendering="geometricPrecision" shape-rendering="geometricPrecision" transform="matrix(1,0,0,1,-160,-97)">
      <line y2="285" fill="none" x1="513" clip-path="url(#clipPath6)" x2="631" y1="285"/>
      <text stroke-linecap="butt" x="517" y="302.4121" clip-path="url(#clipPath6)" font-family="sans-serif" stroke="none" stroke-miterlimit="1.45" xml:space="preserve">-field1</text>
      <text stroke-linecap="butt" x="517" y="316.5449" clip-path="url(#clipPath6)" font-family="sans-serif" stroke="none" stroke-miterlimit="1.45" xml:space="preserve">-field2</text>
      <line y2="324" fill="none" x1="513" clip-path="url(#clipPath6)" x2="631" y1="324"/>
      <text stroke-linecap="butt" x="517" y="340.6777" clip-path="url(#clipPath6)" font-family="sans-serif" stroke="none" stroke-miterlimit="1.45" xml:space="preserve"> </text>
      <rect x="524" y="566" clip-path="url(#clipPath2)" fill="rgb(255,255,204)" width="118" height="128" stroke="none"/>
      <rect x="523" y="565" clip-path="url(#clipPath2)" fill="white" width="1" height="130" stroke="none"/>
      <rect x="524" y="565" clip-path="url(#clipPath2)" fill="white" width="118" height="1" stroke="none"/>
      <rect x="524" y="694" clip-path="url(#clipPath2)" fill="rgb(178,178,142)" width="119" height="1" stroke="none"/>
      <rect x="642" y="565" clip-path="url(#clipPath2)" fill="rgb(178,178,142)" width="1" height="129" stroke="none"/>
    </g>
    <g font-size="13px" stroke-linecap="butt" transform="matrix(1,0,0,1,-160,-97)" text-rendering="geometricPrecision" font-family="sans-serif" shape-rendering="geometricPrecision" font-weight="bold" stroke-miterlimit="1.45">
      <text x="557.7046" xml:space="preserve" y="582.8184" clip-path="url(#clipPath7)" stroke="none">E entity</text>
    </g>
    <g text-rendering="geometricPrecision" shape-rendering="geometricPrecision" transform="matrix(1,0,0,1,-160,-97)">
      <line y2="590" fill="none" x1="524" clip-path="url(#clipPath7)" x2="642" y1="590"/>
      <text stroke-linecap="butt" x="528" y="607.1621" clip-path="url(#clipPath7)" font-family="sans-serif" stroke="none" stroke-miterlimit="1.45" xml:space="preserve">-field5</text>
      <text stroke-linecap="butt" x="528" y="621.2949" clip-path="url(#clipPath7)" font-family="sans-serif" stroke="none" stroke-miterlimit="1.45" xml:space="preserve"> </text>
      <line y2="628" fill="none" x1="524" clip-path="url(#clipPath7)" x2="642" y1="628"/>
      <text stroke-linecap="butt" x="528" y="645.4277" clip-path="url(#clipPath7)" font-family="sans-serif" stroke="none" stroke-miterlimit="1.45" xml:space="preserve"> </text>
      <rect x="328" y="425" clip-path="url(#clipPath2)" fill="rgb(255,255,204)" width="118" height="67" stroke="none"/>
      <rect x="327" y="424" clip-path="url(#clipPath2)" fill="white" width="1" height="69" stroke="none"/>
      <rect x="328" y="424" clip-path="url(#clipPath2)" fill="white" width="118" height="1" stroke="none"/>
      <rect x="328" y="492" clip-path="url(#clipPath2)" fill="rgb(178,178,142)" width="119" height="1" stroke="none"/>
      <rect x="446" y="424" clip-path="url(#clipPath2)" fill="rgb(178,178,142)" width="1" height="68" stroke="none"/>
    </g>
    <g font-size="13px" stroke-linecap="butt" transform="matrix(1,0,0,1,-160,-97)" text-rendering="geometricPrecision" font-family="sans-serif" shape-rendering="geometricPrecision" font-weight="bold" stroke-miterlimit="1.45">
      <text x="360.9778" xml:space="preserve" y="441.8184" clip-path="url(#clipPath8)" stroke="none">C entity</text>
    </g>
    <g text-rendering="geometricPrecision" shape-rendering="geometricPrecision" transform="matrix(1,0,0,1,-160,-97)">
      <line y2="449" fill="none" x1="328" clip-path="url(#clipPath8)" x2="446" y1="449"/>
      <text stroke-linecap="butt" x="332" y="466.1621" clip-path="url(#clipPath8)" font-family="sans-serif" stroke="none" stroke-miterlimit="1.45" xml:space="preserve"> </text>
      <line y2="473" fill="none" x1="328" clip-path="url(#clipPath8)" x2="446" y1="473"/>
      <text stroke-linecap="butt" x="332" y="490.2949" clip-path="url(#clipPath8)" font-family="sans-serif" stroke="none" stroke-miterlimit="1.45" xml:space="preserve"> </text>
      <rect x="419" y="113" clip-path="url(#clipPath2)" fill="rgb(255,255,204)" width="98" height="95" stroke="none"/>
      <rect x="418" y="112" clip-path="url(#clipPath2)" fill="white" width="1" height="97" stroke="none"/>
      <rect x="419" y="112" clip-path="url(#clipPath2)" fill="white" width="98" height="1" stroke="none"/>
      <rect x="419" y="208" clip-path="url(#clipPath2)" fill="rgb(178,178,142)" width="99" height="1" stroke="none"/>
      <rect x="517" y="112" clip-path="url(#clipPath2)" fill="rgb(178,178,142)" width="1" height="96" stroke="none"/>
      <text stroke-linecap="butt" x="423.4863" y="129.3516" clip-path="url(#clipPath9)" font-family="sans-serif" stroke="none" stroke-miterlimit="1.45" xml:space="preserve">&lt;&lt;interface&gt;&gt;</text>
    </g>
    <g font-size="13px" stroke-linecap="butt" transform="matrix(1,0,0,1,-160,-97)" text-rendering="geometricPrecision" font-family="sans-serif" shape-rendering="geometricPrecision" font-weight="bold" stroke-miterlimit="1.45">
      <text x="448.6555" xml:space="preserve" y="153.4512" clip-path="url(#clipPath9)" stroke="none">Entity</text>
    </g>
    <g text-rendering="geometricPrecision" shape-rendering="geometricPrecision" transform="matrix(1,0,0,1,-160,-97)">
      <line y2="161" fill="none" x1="419" clip-path="url(#clipPath9)" x2="517" y1="161"/>
      <text stroke-linecap="butt" x="423" y="177.7949" clip-path="url(#clipPath9)" font-family="sans-serif" stroke="none" stroke-miterlimit="1.45" xml:space="preserve"> </text>
      <line y2="185" fill="none" x1="419" clip-path="url(#clipPath9)" x2="517" y1="185"/>
      <text stroke-linecap="butt" x="423" y="201.9277" clip-path="url(#clipPath9)" font-family="sans-serif" stroke="none" stroke-miterlimit="1.45" xml:space="preserve"> </text>
      <text stroke-linecap="butt" x="599.5107" y="158.7188" clip-path="url(#clipPath2)" font-family="sans-serif" stroke="none" stroke-miterlimit="1.45" xml:space="preserve">And other</text>
      <text stroke-linecap="butt" x="594.3105" y="172.8516" clip-path="url(#clipPath2)" font-family="sans-serif" stroke="none" stroke-miterlimit="1.45" xml:space="preserve">interfaces...</text>
      <rect x="189" y="432" clip-path="url(#clipPath2)" fill="rgb(255,255,204)" width="105" height="95" stroke="none"/>
      <rect x="188" y="431" clip-path="url(#clipPath2)" fill="white" width="1" height="97" stroke="none"/>
      <rect x="189" y="431" clip-path="url(#clipPath2)" fill="white" width="105" height="1" stroke="none"/>
      <rect x="189" y="527" clip-path="url(#clipPath2)" fill="rgb(178,178,142)" width="106" height="1" stroke="none"/>
      <rect x="294" y="431" clip-path="url(#clipPath2)" fill="rgb(178,178,142)" width="1" height="96" stroke="none"/>
      <text stroke-linecap="butt" x="199.4434" y="447.6016" clip-path="url(#clipPath10)" font-family="sans-serif" stroke="none" stroke-miterlimit="1.45" xml:space="preserve">&lt;&lt;abstract&gt;&gt;</text>
    </g>
    <g font-size="13px" stroke-linecap="butt" transform="matrix(1,0,0,1,-160,-97)" text-rendering="geometricPrecision" font-family="sans-serif" shape-rendering="geometricPrecision" font-weight="bold" stroke-miterlimit="1.45">
      <text x="211.4551" xml:space="preserve" y="471.7012" clip-path="url(#clipPath10)" stroke="none">DE Entity</text>
    </g>
    <g text-rendering="geometricPrecision" shape-rendering="geometricPrecision" transform="matrix(1,0,0,1,-160,-97)">
      <line y2="479" fill="none" x1="189" clip-path="url(#clipPath10)" x2="294" y1="479"/>
      <text stroke-linecap="butt" x="193.5" y="496.0449" clip-path="url(#clipPath10)" font-family="sans-serif" stroke="none" stroke-miterlimit="1.45" xml:space="preserve">-field4</text>
      <line y2="503" fill="none" x1="189" clip-path="url(#clipPath10)" x2="294" y1="503"/>
      <text stroke-linecap="butt" x="193.5" y="520.1777" clip-path="url(#clipPath10)" font-family="sans-serif" stroke="none" stroke-miterlimit="1.45" xml:space="preserve"> </text>
      <rect x="189" y="269" clip-path="url(#clipPath2)" fill="rgb(255,255,204)" width="105" height="114" stroke="none"/>
      <rect x="188" y="268" clip-path="url(#clipPath2)" fill="white" width="1" height="116" stroke="none"/>
      <rect x="189" y="268" clip-path="url(#clipPath2)" fill="white" width="105" height="1" stroke="none"/>
      <rect x="189" y="383" clip-path="url(#clipPath2)" fill="rgb(178,178,142)" width="106" height="1" stroke="none"/>
      <rect x="294" y="268" clip-path="url(#clipPath2)" fill="rgb(178,178,142)" width="1" height="115" stroke="none"/>
      <text stroke-linecap="butt" x="199.4434" y="284.6016" clip-path="url(#clipPath11)" font-family="sans-serif" stroke="none" stroke-miterlimit="1.45" xml:space="preserve">&lt;&lt;abstract&gt;&gt;</text>
    </g>
    <g font-size="13px" stroke-linecap="butt" transform="matrix(1,0,0,1,-160,-97)" text-rendering="geometricPrecision" font-family="sans-serif" shape-rendering="geometricPrecision" font-weight="bold" stroke-miterlimit="1.45">
      <text x="206.8245" xml:space="preserve" y="308.7012" clip-path="url(#clipPath11)" stroke="none">CDE Entity</text>
    </g>
    <g text-rendering="geometricPrecision" shape-rendering="geometricPrecision" transform="matrix(1,0,0,1,-160,-97)">
      <line y2="316" fill="none" x1="189" clip-path="url(#clipPath11)" x2="294" y1="316"/>
      <text stroke-linecap="butt" x="193.5" y="333.0449" clip-path="url(#clipPath11)" font-family="sans-serif" stroke="none" stroke-miterlimit="1.45" xml:space="preserve">-field1</text>
      <text stroke-linecap="butt" x="193.5" y="347.1777" clip-path="url(#clipPath11)" font-family="sans-serif" stroke="none" stroke-miterlimit="1.45" xml:space="preserve">-field2</text>
      <text stroke-linecap="butt" x="193.5" y="361.3105" clip-path="url(#clipPath11)" font-family="sans-serif" stroke="none" stroke-miterlimit="1.45" xml:space="preserve">-field3</text>
      <line y2="368" fill="none" x1="189" clip-path="url(#clipPath11)" x2="294" y1="368"/>
      <text stroke-linecap="butt" x="193.5" y="385.4434" clip-path="url(#clipPath11)" font-family="sans-serif" stroke="none" stroke-miterlimit="1.45" xml:space="preserve"> </text>
      <path fill="none" stroke-miterlimit="1.45" d="M358 266.0088 L358 248 L242 248 L242 202.7177" clip-path="url(#clipPath2)" stroke-linecap="butt"/>
    </g>
    <g stroke-linecap="butt" transform="matrix(1,0,0,1,-160,-97)" fill="white" text-rendering="geometricPrecision" shape-rendering="geometricPrecision" stroke="white" stroke-miterlimit="1.45">
      <path d="M242 187.7177 L236 203.7177 L248 203.7177 Z" stroke="none" clip-path="url(#clipPath2)"/>
      <path fill="none" d="M242 187.7177 L236 203.7177 L248 203.7177 Z" clip-path="url(#clipPath2)" stroke="black"/>
      <path fill="none" d="M530 260.5303 L530 248 L242 248 L242 202.7177" clip-path="url(#clipPath2)" stroke="black"/>
      <path d="M242 187.7177 L236 203.7177 L248 203.7177 Z" clip-path="url(#clipPath2)" stroke="none"/>
      <path fill="none" d="M242 187.7177 L236 203.7177 L248 203.7177 Z" clip-path="url(#clipPath2)" stroke="black"/>
      <path fill="none" stroke-dasharray="6,2" d="M387 565.2487 L387 544 L652 544 L652 234 L468 234 L468 224.7382" clip-path="url(#clipPath2)" stroke="black"/>
      <path stroke-dasharray="6,2" d="M468 209.7382 L462 225.7382 L474 225.7382 Z" clip-path="url(#clipPath2)" stroke="none"/>
      <path fill="none" d="M468 209.7382 L462 225.7382 L474 225.7382 Z" clip-path="url(#clipPath2)" stroke="black"/>
      <path fill="none" stroke-dasharray="6,2" d="M387 424.2743 L387 390 L651 390 L651 234 L468 234 L468 224.7382" clip-path="url(#clipPath2)" stroke="black"/>
      <path stroke-dasharray="6,2" d="M468 209.7382 L462 225.7382 L474 225.7382 Z" clip-path="url(#clipPath2)" stroke="none"/>
      <path fill="none" d="M468 209.7382 L462 225.7382 L474 225.7382 Z" clip-path="url(#clipPath2)" stroke="black"/>
      <path fill="none" stroke-dasharray="6,2" d="M387 266.0007 L387 234 L468 234 L468 224.7382" clip-path="url(#clipPath2)" stroke="black"/>
      <path stroke-dasharray="6,2" d="M468 209.7382 L462 225.7382 L474 225.7382 Z" clip-path="url(#clipPath2)" stroke="none"/>
      <path fill="none" d="M468 209.7382 L462 225.7382 L474 225.7382 Z" clip-path="url(#clipPath2)" stroke="black"/>
      <path fill="none" stroke-dasharray="6,2" d="M572 260.5037 L572 234 L468 234 L468 224.7382" clip-path="url(#clipPath2)" stroke="black"/>
      <path stroke-dasharray="6,2" d="M468 209.7382 L462 225.7382 L474 225.7382 Z" clip-path="url(#clipPath2)" stroke="none"/>
      <path fill="none" d="M468 209.7382 L462 225.7382 L474 225.7382 Z" clip-path="url(#clipPath2)" stroke="black"/>
      <path fill="none" stroke-dasharray="6,2" d="M583 565.2677 L583 544 L652 544 L652 234 L468 234 L468 224.7382" clip-path="url(#clipPath2)" stroke="black"/>
      <path stroke-dasharray="6,2" d="M468 209.7382 L462 225.7382 L474 225.7382 Z" clip-path="url(#clipPath2)" stroke="none"/>
      <path fill="none" d="M468 209.7382 L462 225.7382 L474 225.7382 Z" clip-path="url(#clipPath2)" stroke="black"/>
      <path fill="none" d="M354 565.2871 L354 555 L242 555 L242 543.0541" clip-path="url(#clipPath2)" stroke="black"/>
      <path d="M242 528.0541 L236 544.0541 L248 544.0541 Z" clip-path="url(#clipPath2)" stroke="none"/>
      <path fill="none" d="M242 528.0541 L236 544.0541 L248 544.0541 Z" clip-path="url(#clipPath2)" stroke="black"/>
      <path fill="none" d="M550 565.2061 L550 554 L242 554 L242 543.0541" clip-path="url(#clipPath2)" stroke="black"/>
      <path d="M242 528.0541 L236 544.0541 L248 544.0541 Z" clip-path="url(#clipPath2)" stroke="none"/>
      <path fill="none" d="M242 528.0541 L236 544.0541 L248 544.0541 Z" clip-path="url(#clipPath2)" stroke="black"/>
      <path fill="none" d="M356 424.2829 L356 410 L242 410 L242 399.5233" clip-path="url(#clipPath2)" stroke="black"/>
      <path d="M242 384.5233 L236 400.5233 L248 400.5233 Z" clip-path="url(#clipPath2)" stroke="none"/>
      <path fill="none" d="M242 384.5233 L236 400.5233 L248 400.5233 Z" clip-path="url(#clipPath2)" stroke="black"/>
      <path fill="none" d="M242 430.9733 L242 399.5177" clip-path="url(#clipPath2)" stroke="black"/>
      <path d="M242 384.5177 L236 400.5177 L248 400.5177 Z" clip-path="url(#clipPath2)" stroke="none"/>
      <path fill="none" d="M242 384.5177 L236 400.5177 L248 400.5177 Z" clip-path="url(#clipPath2)" stroke="black"/>
      <path fill="none" d="M242 267.9602 L242 202.7452" clip-path="url(#clipPath2)" stroke="black"/>
      <path d="M242 187.7452 L236 203.7452 L248 203.7452 Z" clip-path="url(#clipPath2)" stroke="none"/>
      <path fill="none" d="M242 187.7452 L236 203.7452 L248 203.7452 Z" clip-path="url(#clipPath2)" stroke="black"/>
    </g>
  </g>
</svg>
