<?xml version="1.0" encoding="UTF-8"?><svg xmlns="http://www.w3.org/2000/svg" xmlns:xlink="http://www.w3.org/1999/xlink" fill-opacity="1" color-rendering="auto" color-interpolation="auto" text-rendering="auto" stroke="black" stroke-linecap="square" width="546" stroke-miterlimit="10" shape-rendering="auto" stroke-opacity="1" fill="black" stroke-dasharray="none" font-weight="normal" stroke-width="1" height="614" font-family="'Dialog'" font-style="normal" stroke-linejoin="miter" font-size="12px" stroke-dashoffset="0" image-rendering="auto">
  <!--Generated by ySVG 2.5-->
  <defs id="genericDefs"/>
  <g>
    <defs id="defs1">
      <clipPath clipPathUnits="userSpaceOnUse" id="clipPath1">
        <path d="M0 0 L546 0 L546 614 L0 614 L0 0 Z"/>
      </clipPath>
      <clipPath clipPathUnits="userSpaceOnUse" id="clipPath2">
        <path d="M160 97 L706 97 L706 711 L160 711 L160 97 Z"/>
      </clipPath>
      <clipPath clipPathUnits="userSpaceOnUse" id="clipPath3">
        <path d="M327 565 L327 676 L447 676 L447 565 Z"/>
      </clipPath>
      <clipPath clipPathUnits="userSpaceOnUse" id="clipPath4">
        <path d="M175 112 L175 187 L309 187 L309 112 Z"/>
      </clipPath>
      <clipPath clipPathUnits="userSpaceOnUse" id="clipPath5">
        <path d="M327 308 L327 377 L447 377 L447 308 Z"/>
      </clipPath>
      <clipPath clipPathUnits="userSpaceOnUse" id="clipPath6">
        <path d="M512 308 L512 377 L632 377 L632 308 Z"/>
      </clipPath>
      <clipPath clipPathUnits="userSpaceOnUse" id="clipPath7">
        <path d="M523 565 L523 695 L643 695 L643 565 Z"/>
      </clipPath>
      <clipPath clipPathUnits="userSpaceOnUse" id="clipPath8">
        <path d="M327 455 L327 524 L447 524 L447 455 Z"/>
      </clipPath>
      <clipPath clipPathUnits="userSpaceOnUse" id="clipPath9">
        <path d="M188 492 L188 589 L295 589 L295 492 Z"/>
      </clipPath>
      <clipPath clipPathUnits="userSpaceOnUse" id="clipPath10">
        <path d="M188 369 L188 466 L295 466 L295 369 Z"/>
      </clipPath>
      <clipPath clipPathUnits="userSpaceOnUse" id="clipPath11">
        <path d="M183 228 L183 339 L297 339 L297 228 Z"/>
      </clipPath>
    </defs>
    <g fill="white" text-rendering="geometricPrecision" shape-rendering="geometricPrecision" transform="translate(-160,-97)" stroke="white">
      <rect x="160" width="546" height="614" y="97" clip-path="url(#clipPath2)" stroke="none"/>
    </g>
    <g fill="rgb(255,255,204)" text-rendering="geometricPrecision" shape-rendering="geometricPrecision" transform="matrix(1,0,0,1,-160,-97)" stroke="rgb(255,255,204)">
      <rect x="328" width="118" height="109" y="566" clip-path="url(#clipPath2)" stroke="none"/>
      <rect x="327" y="565" clip-path="url(#clipPath2)" fill="white" width="1" height="111" stroke="none"/>
      <rect x="328" y="565" clip-path="url(#clipPath2)" fill="white" width="118" height="1" stroke="none"/>
      <rect x="328" y="675" clip-path="url(#clipPath2)" fill="rgb(178,178,142)" width="119" height="1" stroke="none"/>
      <rect x="446" y="565" clip-path="url(#clipPath2)" fill="rgb(178,178,142)" width="1" height="110" stroke="none"/>
    </g>
    <g font-size="13px" stroke-linecap="butt" transform="matrix(1,0,0,1,-160,-97)" text-rendering="geometricPrecision" font-family="sans-serif" shape-rendering="geometricPrecision" font-weight="bold" stroke-miterlimit="1.45">
      <text x="360.4541" xml:space="preserve" y="582.8184" clip-path="url(#clipPath3)" stroke="none">D entity</text>
    </g>
    <g text-rendering="geometricPrecision" shape-rendering="geometricPrecision" transform="matrix(1,0,0,1,-160,-97)">
      <line y2="590" fill="none" x1="328" clip-path="url(#clipPath3)" x2="446" y1="590"/>
      <text stroke-linecap="butt" x="332" y="607.1621" clip-path="url(#clipPath3)" font-family="sans-serif" stroke="none" stroke-miterlimit="1.45" xml:space="preserve"> </text>
      <line y2="614" fill="none" x1="328" clip-path="url(#clipPath3)" x2="446" y1="614"/>
      <text stroke-linecap="butt" x="332" y="631.2949" clip-path="url(#clipPath3)" font-family="sans-serif" stroke="none" stroke-miterlimit="1.45" xml:space="preserve"> </text>
      <rect x="176" y="113" clip-path="url(#clipPath2)" fill="rgb(255,255,204)" width="132" height="73" stroke="none"/>
      <rect x="175" y="112" clip-path="url(#clipPath2)" fill="white" width="1" height="75" stroke="none"/>
      <rect x="176" y="112" clip-path="url(#clipPath2)" fill="white" width="132" height="1" stroke="none"/>
      <rect x="176" y="186" clip-path="url(#clipPath2)" fill="rgb(178,178,142)" width="133" height="1" stroke="none"/>
      <rect x="308" y="112" clip-path="url(#clipPath2)" fill="rgb(178,178,142)" width="1" height="74" stroke="none"/>
    </g>
    <g font-size="13px" stroke-linecap="butt" transform="matrix(1,0,0,1,-160,-97)" text-rendering="geometricPrecision" font-family="sans-serif" shape-rendering="geometricPrecision" font-weight="bold" stroke-miterlimit="1.45">
      <text x="188.9082" xml:space="preserve" y="130.3184" clip-path="url(#clipPath4)" stroke="none">java.lang.Object</text>
    </g>
    <g text-rendering="geometricPrecision" shape-rendering="geometricPrecision" transform="matrix(1,0,0,1,-160,-97)">
      <line y2="138" fill="none" x1="176" clip-path="url(#clipPath4)" x2="308" y1="138"/>
      <text stroke-linecap="butt" x="180" y="154.6621" clip-path="url(#clipPath4)" font-family="sans-serif" stroke="none" stroke-miterlimit="1.45" xml:space="preserve"> </text>
      <line y2="162" fill="none" x1="176" clip-path="url(#clipPath4)" x2="308" y1="162"/>
      <text stroke-linecap="butt" x="180" y="178.7949" clip-path="url(#clipPath4)" font-family="sans-serif" stroke="none" stroke-miterlimit="1.45" xml:space="preserve"> </text>
      <rect x="328" y="309" clip-path="url(#clipPath2)" fill="rgb(255,255,204)" width="118" height="67" stroke="none"/>
      <rect x="327" y="308" clip-path="url(#clipPath2)" fill="white" width="1" height="69" stroke="none"/>
      <rect x="328" y="308" clip-path="url(#clipPath2)" fill="white" width="118" height="1" stroke="none"/>
      <rect x="328" y="376" clip-path="url(#clipPath2)" fill="rgb(178,178,142)" width="119" height="1" stroke="none"/>
      <rect x="446" y="308" clip-path="url(#clipPath2)" fill="rgb(178,178,142)" width="1" height="68" stroke="none"/>
    </g>
    <g font-size="13px" stroke-linecap="butt" transform="matrix(1,0,0,1,-160,-97)" text-rendering="geometricPrecision" font-family="sans-serif" shape-rendering="geometricPrecision" font-weight="bold" stroke-miterlimit="1.45">
      <text x="360.8223" xml:space="preserve" y="325.5684" clip-path="url(#clipPath5)" stroke="none">A entity</text>
    </g>
    <g text-rendering="geometricPrecision" shape-rendering="geometricPrecision" transform="matrix(1,0,0,1,-160,-97)">
      <line y2="333" fill="none" x1="328" clip-path="url(#clipPath5)" x2="446" y1="333"/>
      <text stroke-linecap="butt" x="332" y="349.9121" clip-path="url(#clipPath5)" font-family="sans-serif" stroke="none" stroke-miterlimit="1.45" xml:space="preserve"> </text>
      <line y2="357" fill="none" x1="328" clip-path="url(#clipPath5)" x2="446" y1="357"/>
      <text stroke-linecap="butt" x="332" y="374.0449" clip-path="url(#clipPath5)" font-family="sans-serif" stroke="none" stroke-miterlimit="1.45" xml:space="preserve"> </text>
      <rect x="513" y="309" clip-path="url(#clipPath2)" fill="rgb(255,255,204)" width="118" height="67" stroke="none"/>
      <rect x="512" y="308" clip-path="url(#clipPath2)" fill="white" width="1" height="69" stroke="none"/>
      <rect x="513" y="308" clip-path="url(#clipPath2)" fill="white" width="118" height="1" stroke="none"/>
      <rect x="513" y="376" clip-path="url(#clipPath2)" fill="rgb(178,178,142)" width="119" height="1" stroke="none"/>
      <rect x="631" y="308" clip-path="url(#clipPath2)" fill="rgb(178,178,142)" width="1" height="68" stroke="none"/>
    </g>
    <g font-size="13px" stroke-linecap="butt" transform="matrix(1,0,0,1,-160,-97)" text-rendering="geometricPrecision" font-family="sans-serif" shape-rendering="geometricPrecision" font-weight="bold" stroke-miterlimit="1.45">
      <text x="546.5142" xml:space="preserve" y="325.5684" clip-path="url(#clipPath6)" stroke="none">B entity</text>
    </g>
    <g text-rendering="geometricPrecision" shape-rendering="geometricPrecision" transform="matrix(1,0,0,1,-160,-97)">
      <line y2="333" fill="none" x1="513" clip-path="url(#clipPath6)" x2="631" y1="333"/>
      <text stroke-linecap="butt" x="517" y="349.9121" clip-path="url(#clipPath6)" font-family="sans-serif" stroke="none" stroke-miterlimit="1.45" xml:space="preserve"> </text>
      <line y2="357" fill="none" x1="513" clip-path="url(#clipPath6)" x2="631" y1="357"/>
      <text stroke-linecap="butt" x="517" y="374.0449" clip-path="url(#clipPath6)" font-family="sans-serif" stroke="none" stroke-miterlimit="1.45" xml:space="preserve"> </text>
      <rect x="524" y="566" clip-path="url(#clipPath2)" fill="rgb(255,255,204)" width="118" height="128" stroke="none"/>
      <rect x="523" y="565" clip-path="url(#clipPath2)" fill="white" width="1" height="130" stroke="none"/>
      <rect x="524" y="565" clip-path="url(#clipPath2)" fill="white" width="118" height="1" stroke="none"/>
      <rect x="524" y="694" clip-path="url(#clipPath2)" fill="rgb(178,178,142)" width="119" height="1" stroke="none"/>
      <rect x="642" y="565" clip-path="url(#clipPath2)" fill="rgb(178,178,142)" width="1" height="129" stroke="none"/>
    </g>
    <g font-size="13px" stroke-linecap="butt" transform="matrix(1,0,0,1,-160,-97)" text-rendering="geometricPrecision" font-family="sans-serif" shape-rendering="geometricPrecision" font-weight="bold" stroke-miterlimit="1.45">
      <text x="557.7046" xml:space="preserve" y="582.8184" clip-path="url(#clipPath7)" stroke="none">E entity</text>
    </g>
    <g text-rendering="geometricPrecision" shape-rendering="geometricPrecision" transform="matrix(1,0,0,1,-160,-97)">
      <line y2="590" fill="none" x1="524" clip-path="url(#clipPath7)" x2="642" y1="590"/>
      <text stroke-linecap="butt" x="528" y="607.1621" clip-path="url(#clipPath7)" font-family="sans-serif" stroke="none" stroke-miterlimit="1.45" xml:space="preserve">-field5</text>
      <text stroke-linecap="butt" x="528" y="621.2949" clip-path="url(#clipPath7)" font-family="sans-serif" stroke="none" stroke-miterlimit="1.45" xml:space="preserve"> </text>
      <line y2="628" fill="none" x1="524" clip-path="url(#clipPath7)" x2="642" y1="628"/>
      <text stroke-linecap="butt" x="528" y="645.4277" clip-path="url(#clipPath7)" font-family="sans-serif" stroke="none" stroke-miterlimit="1.45" xml:space="preserve"> </text>
      <rect x="328" y="456" clip-path="url(#clipPath2)" fill="rgb(255,255,204)" width="118" height="67" stroke="none"/>
      <rect x="327" y="455" clip-path="url(#clipPath2)" fill="white" width="1" height="69" stroke="none"/>
      <rect x="328" y="455" clip-path="url(#clipPath2)" fill="white" width="118" height="1" stroke="none"/>
      <rect x="328" y="523" clip-path="url(#clipPath2)" fill="rgb(178,178,142)" width="119" height="1" stroke="none"/>
      <rect x="446" y="455" clip-path="url(#clipPath2)" fill="rgb(178,178,142)" width="1" height="68" stroke="none"/>
    </g>
    <g font-size="13px" stroke-linecap="butt" transform="matrix(1,0,0,1,-160,-97)" text-rendering="geometricPrecision" font-family="sans-serif" shape-rendering="geometricPrecision" font-weight="bold" stroke-miterlimit="1.45">
      <text x="360.9778" xml:space="preserve" y="472.5684" clip-path="url(#clipPath8)" stroke="none">C entity</text>
    </g>
    <g text-rendering="geometricPrecision" shape-rendering="geometricPrecision" transform="matrix(1,0,0,1,-160,-97)">
      <line y2="480" fill="none" x1="328" clip-path="url(#clipPath8)" x2="446" y1="480"/>
      <text stroke-linecap="butt" x="332" y="496.9121" clip-path="url(#clipPath8)" font-family="sans-serif" stroke="none" stroke-miterlimit="1.45" xml:space="preserve"> </text>
      <line y2="504" fill="none" x1="328" clip-path="url(#clipPath8)" x2="446" y1="504"/>
      <text stroke-linecap="butt" x="332" y="521.0449" clip-path="url(#clipPath8)" font-family="sans-serif" stroke="none" stroke-miterlimit="1.45" xml:space="preserve"> </text>
      <text stroke-linecap="butt" x="599.5107" y="158.7188" clip-path="url(#clipPath2)" font-family="sans-serif" stroke="none" stroke-miterlimit="1.45" xml:space="preserve">And other</text>
      <text stroke-linecap="butt" x="594.3105" y="172.8516" clip-path="url(#clipPath2)" font-family="sans-serif" stroke="none" stroke-miterlimit="1.45" xml:space="preserve">interfaces...</text>
      <rect x="189" y="493" clip-path="url(#clipPath2)" fill="rgb(255,255,204)" width="105" height="95" stroke="none"/>
      <rect x="188" y="492" clip-path="url(#clipPath2)" fill="white" width="1" height="97" stroke="none"/>
      <rect x="189" y="492" clip-path="url(#clipPath2)" fill="white" width="105" height="1" stroke="none"/>
      <rect x="189" y="588" clip-path="url(#clipPath2)" fill="rgb(178,178,142)" width="106" height="1" stroke="none"/>
      <rect x="294" y="492" clip-path="url(#clipPath2)" fill="rgb(178,178,142)" width="1" height="96" stroke="none"/>
      <text stroke-linecap="butt" x="199.4434" y="508.6016" clip-path="url(#clipPath9)" font-family="sans-serif" stroke="none" stroke-miterlimit="1.45" xml:space="preserve">&lt;&lt;abstract&gt;&gt;</text>
    </g>
    <g font-size="13px" stroke-linecap="butt" transform="matrix(1,0,0,1,-160,-97)" text-rendering="geometricPrecision" font-family="sans-serif" shape-rendering="geometricPrecision" font-weight="bold" stroke-miterlimit="1.45">
      <text x="211.4551" xml:space="preserve" y="532.7012" clip-path="url(#clipPath9)" stroke="none">DE Entity</text>
    </g>
    <g text-rendering="geometricPrecision" shape-rendering="geometricPrecision" transform="matrix(1,0,0,1,-160,-97)">
      <line y2="540" fill="none" x1="189" clip-path="url(#clipPath9)" x2="294" y1="540"/>
      <text stroke-linecap="butt" x="193.5" y="557.0449" clip-path="url(#clipPath9)" font-family="sans-serif" stroke="none" stroke-miterlimit="1.45" xml:space="preserve">-field4</text>
      <line y2="564" fill="none" x1="189" clip-path="url(#clipPath9)" x2="294" y1="564"/>
      <text stroke-linecap="butt" x="193.5" y="581.1777" clip-path="url(#clipPath9)" font-family="sans-serif" stroke="none" stroke-miterlimit="1.45" xml:space="preserve"> </text>
      <rect x="189" y="370" clip-path="url(#clipPath2)" fill="rgb(255,255,204)" width="105" height="95" stroke="none"/>
      <rect x="188" y="369" clip-path="url(#clipPath2)" fill="white" width="1" height="97" stroke="none"/>
      <rect x="189" y="369" clip-path="url(#clipPath2)" fill="white" width="105" height="1" stroke="none"/>
      <rect x="189" y="465" clip-path="url(#clipPath2)" fill="rgb(178,178,142)" width="106" height="1" stroke="none"/>
      <rect x="294" y="369" clip-path="url(#clipPath2)" fill="rgb(178,178,142)" width="1" height="96" stroke="none"/>
      <text stroke-linecap="butt" x="199.4434" y="385.6016" clip-path="url(#clipPath10)" font-family="sans-serif" stroke="none" stroke-miterlimit="1.45" xml:space="preserve">&lt;&lt;abstract&gt;&gt;</text>
    </g>
    <g font-size="13px" stroke-linecap="butt" transform="matrix(1,0,0,1,-160,-97)" text-rendering="geometricPrecision" font-family="sans-serif" shape-rendering="geometricPrecision" font-weight="bold" stroke-miterlimit="1.45">
      <text x="206.8245" xml:space="preserve" y="409.7012" clip-path="url(#clipPath10)" stroke="none">CDE Entity</text>
    </g>
    <g text-rendering="geometricPrecision" shape-rendering="geometricPrecision" transform="matrix(1,0,0,1,-160,-97)">
      <line y2="417" fill="none" x1="189" clip-path="url(#clipPath10)" x2="294" y1="417"/>
      <text stroke-linecap="butt" x="193.5" y="434.0449" clip-path="url(#clipPath10)" font-family="sans-serif" stroke="none" stroke-miterlimit="1.45" xml:space="preserve">-field3</text>
      <line y2="441" fill="none" x1="189" clip-path="url(#clipPath10)" x2="294" y1="441"/>
      <text stroke-linecap="butt" x="193.5" y="458.1777" clip-path="url(#clipPath10)" font-family="sans-serif" stroke="none" stroke-miterlimit="1.45" xml:space="preserve"> </text>
      <rect x="184" y="229" clip-path="url(#clipPath2)" fill="rgb(255,255,204)" width="112" height="109" stroke="none"/>
      <rect x="183" y="228" clip-path="url(#clipPath2)" fill="white" width="1" height="111" stroke="none"/>
      <rect x="184" y="228" clip-path="url(#clipPath2)" fill="white" width="112" height="1" stroke="none"/>
      <rect x="184" y="338" clip-path="url(#clipPath2)" fill="rgb(178,178,142)" width="113" height="1" stroke="none"/>
      <rect x="296" y="228" clip-path="url(#clipPath2)" fill="rgb(178,178,142)" width="1" height="110" stroke="none"/>
      <text stroke-linecap="butt" x="197.4434" y="244.6016" clip-path="url(#clipPath11)" font-family="sans-serif" stroke="none" stroke-miterlimit="1.45" xml:space="preserve">&lt;&lt;abstract&gt;&gt;</text>
    </g>
    <g font-size="13px" stroke-linecap="butt" transform="matrix(1,0,0,1,-160,-97)" text-rendering="geometricPrecision" font-family="sans-serif" shape-rendering="geometricPrecision" font-weight="bold" stroke-miterlimit="1.45">
      <text x="220.6555" xml:space="preserve" y="268.7012" clip-path="url(#clipPath11)" stroke="none">Entity</text>
    </g>
    <g text-rendering="geometricPrecision" shape-rendering="geometricPrecision" transform="matrix(1,0,0,1,-160,-97)">
      <line y2="276" fill="none" x1="184" clip-path="url(#clipPath11)" x2="296" y1="276"/>
      <text stroke-linecap="butt" x="188" y="293.0449" clip-path="url(#clipPath11)" font-family="sans-serif" stroke="none" stroke-miterlimit="1.45" xml:space="preserve">-field1</text>
      <text stroke-linecap="butt" x="188" y="307.1777" clip-path="url(#clipPath11)" font-family="sans-serif" stroke="none" stroke-miterlimit="1.45" xml:space="preserve">-field2</text>
      <line y2="314" fill="none" x1="184" clip-path="url(#clipPath11)" x2="296" y1="314"/>
      <text stroke-linecap="butt" x="188" y="331.3105" clip-path="url(#clipPath11)" font-family="sans-serif" stroke="none" stroke-miterlimit="1.45" xml:space="preserve"> </text>
      <path fill="none" stroke-miterlimit="1.45" d="M354 565.2871 L354 555 L315.5 555 L315.5 609 L242 609 L242 604.0541" clip-path="url(#clipPath2)" stroke-linecap="butt"/>
    </g>
    <g stroke-linecap="butt" transform="matrix(1,0,0,1,-160,-97)" fill="white" text-rendering="geometricPrecision" shape-rendering="geometricPrecision" stroke="white" stroke-miterlimit="1.45">
      <path d="M242 589.0541 L236 605.0541 L248 605.0541 Z" stroke="none" clip-path="url(#clipPath2)"/>
      <path fill="none" d="M242 589.0541 L236 605.0541 L248 605.0541 Z" clip-path="url(#clipPath2)" stroke="black"/>
      <path fill="none" d="M550 565.2061 L550 554 L315.5 554 L315.5 609 L242 609 L242 604.0541" clip-path="url(#clipPath2)" stroke="black"/>
      <path d="M242 589.0541 L236 605.0541 L248 605.0541 Z" clip-path="url(#clipPath2)" stroke="none"/>
      <path fill="none" d="M242 589.0541 L236 605.0541 L248 605.0541 Z" clip-path="url(#clipPath2)" stroke="black"/>
      <path fill="none" d="M356 454.9918 L356 448 L310.5148 448" clip-path="url(#clipPath2)" stroke="black"/>
      <path d="M295.5148 448 L311.5148 454 L311.5148 442 Z" clip-path="url(#clipPath2)" stroke="none"/>
      <path fill="none" d="M295.5148 448 L311.5148 454 L311.5148 442 Z" clip-path="url(#clipPath2)" stroke="black"/>
      <path fill="none" d="M242 492.0027 L242 480.9922" clip-path="url(#clipPath2)" stroke="black"/>
      <path d="M242 465.9922 L236 481.9922 L248 481.9922 Z" clip-path="url(#clipPath2)" stroke="none"/>
      <path fill="none" d="M242 465.9922 L236 481.9922 L248 481.9922 Z" clip-path="url(#clipPath2)" stroke="black"/>
      <path fill="none" d="M241.2759 368.9839 L241.0518 353.971" clip-path="url(#clipPath2)" stroke="black"/>
      <path d="M240.828 338.9727 L235.0674 355.0605 L247.0661 354.8814 Z" clip-path="url(#clipPath2)" stroke="none"/>
      <path fill="none" d="M240.828 338.9727 L235.0674 355.0605 L247.0661 354.8814 Z" clip-path="url(#clipPath2)" stroke="black"/>
      <path fill="none" d="M387 308.0161 L387 283.5 L312.0271 283.5" clip-path="url(#clipPath2)" stroke="black"/>
      <path d="M297.0271 283.5 L313.0271 289.5 L313.0271 277.5 Z" clip-path="url(#clipPath2)" stroke="none"/>
      <path fill="none" d="M297.0271 283.5 L313.0271 289.5 L313.0271 277.5 Z" clip-path="url(#clipPath2)" stroke="black"/>
      <path fill="none" d="M535.5 307.9797 L535.5 283.5 L312.0295 283.5" clip-path="url(#clipPath2)" stroke="black"/>
      <path d="M297.0295 283.5 L313.0295 289.5 L313.0295 277.5 Z" clip-path="url(#clipPath2)" stroke="none"/>
      <path fill="none" d="M297.0295 283.5 L313.0295 289.5 L313.0295 277.5 Z" clip-path="url(#clipPath2)" stroke="black"/>
      <path fill="none" d="M240.8335 227.9683 L241.2116 202.7793" clip-path="url(#clipPath2)" stroke="black"/>
      <path d="M241.4367 187.781 L235.1972 203.6891 L247.1959 203.8692 Z" clip-path="url(#clipPath2)" stroke="none"/>
      <path fill="none" d="M241.4367 187.781 L235.1972 203.6891 L247.1959 203.8692 Z" clip-path="url(#clipPath2)" stroke="black"/>
    </g>
  </g>
</svg>
