<?xml version="1.0" encoding="UTF-8"?><svg xmlns="http://www.w3.org/2000/svg" xmlns:xlink="http://www.w3.org/1999/xlink" fill-opacity="1" color-rendering="auto" color-interpolation="auto" text-rendering="auto" stroke="black" stroke-linecap="square" width="546" stroke-miterlimit="10" shape-rendering="auto" stroke-opacity="1" fill="black" stroke-dasharray="none" font-weight="normal" stroke-width="1" height="614" font-family="'Dialog'" font-style="normal" stroke-linejoin="miter" font-size="12px" stroke-dashoffset="0" image-rendering="auto">
  <!--Generated by ySVG 2.5-->
  <defs id="genericDefs"/>
  <g>
    <defs id="defs1">
      <clipPath clipPathUnits="userSpaceOnUse" id="clipPath1">
        <path d="M0 0 L546 0 L546 614 L0 614 L0 0 Z"/>
      </clipPath>
      <clipPath clipPathUnits="userSpaceOnUse" id="clipPath2">
        <path d="M160 97 L706 97 L706 711 L160 711 L160 97 Z"/>
      </clipPath>
      <clipPath clipPathUnits="userSpaceOnUse" id="clipPath3">
        <path d="M327 565 L327 676 L447 676 L447 565 Z"/>
      </clipPath>
      <clipPath clipPathUnits="userSpaceOnUse" id="clipPath4">
        <path d="M175 112 L175 187 L309 187 L309 112 Z"/>
      </clipPath>
      <clipPath clipPathUnits="userSpaceOnUse" id="clipPath5">
        <path d="M327 266 L327 377 L447 377 L447 266 Z"/>
      </clipPath>
      <clipPath clipPathUnits="userSpaceOnUse" id="clipPath6">
        <path d="M512 260 L512 346 L632 346 L632 260 Z"/>
      </clipPath>
      <clipPath clipPathUnits="userSpaceOnUse" id="clipPath7">
        <path d="M523 565 L523 695 L643 695 L643 565 Z"/>
      </clipPath>
      <clipPath clipPathUnits="userSpaceOnUse" id="clipPath8">
        <path d="M327 424 L327 535 L447 535 L447 424 Z"/>
      </clipPath>
      <clipPath clipPathUnits="userSpaceOnUse" id="clipPath9">
        <path d="M418 112 L418 209 L518 209 L518 112 Z"/>
      </clipPath>
    </defs>
    <g fill="white" text-rendering="geometricPrecision" shape-rendering="geometricPrecision" transform="translate(-160,-97)" stroke="white">
      <rect x="160" width="546" height="614" y="97" clip-path="url(#clipPath2)" stroke="none"/>
    </g>
    <g fill="rgb(255,255,204)" text-rendering="geometricPrecision" shape-rendering="geometricPrecision" transform="matrix(1,0,0,1,-160,-97)" stroke="rgb(255,255,204)">
      <rect x="328" width="118" height="109" y="566" clip-path="url(#clipPath2)" stroke="none"/>
      <rect x="327" y="565" clip-path="url(#clipPath2)" fill="white" width="1" height="111" stroke="none"/>
      <rect x="328" y="565" clip-path="url(#clipPath2)" fill="white" width="118" height="1" stroke="none"/>
      <rect x="328" y="675" clip-path="url(#clipPath2)" fill="rgb(178,178,142)" width="119" height="1" stroke="none"/>
      <rect x="446" y="565" clip-path="url(#clipPath2)" fill="rgb(178,178,142)" width="1" height="110" stroke="none"/>
    </g>
    <g font-size="13px" stroke-linecap="butt" transform="matrix(1,0,0,1,-160,-97)" text-rendering="geometricPrecision" font-family="sans-serif" shape-rendering="geometricPrecision" font-weight="bold" stroke-miterlimit="1.45">
      <text x="360.4541" xml:space="preserve" y="582.8184" clip-path="url(#clipPath3)" stroke="none">D entity</text>
    </g>
    <g text-rendering="geometricPrecision" shape-rendering="geometricPrecision" transform="matrix(1,0,0,1,-160,-97)">
      <line y2="590" fill="none" x1="328" clip-path="url(#clipPath3)" x2="446" y1="590"/>
      <text stroke-linecap="butt" x="332" y="607.1621" clip-path="url(#clipPath3)" font-family="sans-serif" stroke="none" stroke-miterlimit="1.45" xml:space="preserve">-field1</text>
      <text stroke-linecap="butt" x="332" y="621.2949" clip-path="url(#clipPath3)" font-family="sans-serif" stroke="none" stroke-miterlimit="1.45" xml:space="preserve">-field2</text>
      <text stroke-linecap="butt" x="332" y="635.4277" clip-path="url(#clipPath3)" font-family="sans-serif" stroke="none" stroke-miterlimit="1.45" xml:space="preserve">-field3</text>
      <text stroke-linecap="butt" x="332" y="649.5605" clip-path="url(#clipPath3)" font-family="sans-serif" stroke="none" stroke-miterlimit="1.45" xml:space="preserve">-field4</text>
      <line y2="657" fill="none" x1="328" clip-path="url(#clipPath3)" x2="446" y1="657"/>
      <text stroke-linecap="butt" x="332" y="673.6934" clip-path="url(#clipPath3)" font-family="sans-serif" stroke="none" stroke-miterlimit="1.45" xml:space="preserve"> </text>
      <rect x="176" y="113" clip-path="url(#clipPath2)" fill="rgb(255,255,204)" width="132" height="73" stroke="none"/>
      <rect x="175" y="112" clip-path="url(#clipPath2)" fill="white" width="1" height="75" stroke="none"/>
      <rect x="176" y="112" clip-path="url(#clipPath2)" fill="white" width="132" height="1" stroke="none"/>
      <rect x="176" y="186" clip-path="url(#clipPath2)" fill="rgb(178,178,142)" width="133" height="1" stroke="none"/>
      <rect x="308" y="112" clip-path="url(#clipPath2)" fill="rgb(178,178,142)" width="1" height="74" stroke="none"/>
    </g>
    <g font-size="13px" stroke-linecap="butt" transform="matrix(1,0,0,1,-160,-97)" text-rendering="geometricPrecision" font-family="sans-serif" shape-rendering="geometricPrecision" font-weight="bold" stroke-miterlimit="1.45">
      <text x="188.9082" xml:space="preserve" y="130.3184" clip-path="url(#clipPath4)" stroke="none">java.lang.Object</text>
    </g>
    <g text-rendering="geometricPrecision" shape-rendering="geometricPrecision" transform="matrix(1,0,0,1,-160,-97)">
      <line y2="138" fill="none" x1="176" clip-path="url(#clipPath4)" x2="308" y1="138"/>
      <text stroke-linecap="butt" x="180" y="154.6621" clip-path="url(#clipPath4)" font-family="sans-serif" stroke="none" stroke-miterlimit="1.45" xml:space="preserve"> </text>
      <line y2="162" fill="none" x1="176" clip-path="url(#clipPath4)" x2="308" y1="162"/>
      <text stroke-linecap="butt" x="180" y="178.7949" clip-path="url(#clipPath4)" font-family="sans-serif" stroke="none" stroke-miterlimit="1.45" xml:space="preserve"> </text>
      <rect x="328" y="267" clip-path="url(#clipPath2)" fill="rgb(255,255,204)" width="118" height="109" stroke="none"/>
      <rect x="327" y="266" clip-path="url(#clipPath2)" fill="white" width="1" height="111" stroke="none"/>
      <rect x="328" y="266" clip-path="url(#clipPath2)" fill="white" width="118" height="1" stroke="none"/>
      <rect x="328" y="376" clip-path="url(#clipPath2)" fill="rgb(178,178,142)" width="119" height="1" stroke="none"/>
      <rect x="446" y="266" clip-path="url(#clipPath2)" fill="rgb(178,178,142)" width="1" height="110" stroke="none"/>
    </g>
    <g font-size="13px" stroke-linecap="butt" transform="matrix(1,0,0,1,-160,-97)" text-rendering="geometricPrecision" font-family="sans-serif" shape-rendering="geometricPrecision" font-weight="bold" stroke-miterlimit="1.45">
      <text x="360.8223" xml:space="preserve" y="283.5684" clip-path="url(#clipPath5)" stroke="none">A entity</text>
    </g>
    <g text-rendering="geometricPrecision" shape-rendering="geometricPrecision" transform="matrix(1,0,0,1,-160,-97)">
      <line y2="291" fill="none" x1="328" clip-path="url(#clipPath5)" x2="446" y1="291"/>
      <text stroke-linecap="butt" x="332" y="307.9121" clip-path="url(#clipPath5)" font-family="sans-serif" stroke="none" stroke-miterlimit="1.45" xml:space="preserve">-field1</text>
      <text stroke-linecap="butt" x="332" y="322.0449" clip-path="url(#clipPath5)" font-family="sans-serif" stroke="none" stroke-miterlimit="1.45" xml:space="preserve">-field2</text>
      <line y2="329" fill="none" x1="328" clip-path="url(#clipPath5)" x2="446" y1="329"/>
      <text stroke-linecap="butt" x="332" y="346.1777" clip-path="url(#clipPath5)" font-family="sans-serif" stroke="none" stroke-miterlimit="1.45" xml:space="preserve"> </text>
      <rect x="513" y="261" clip-path="url(#clipPath2)" fill="rgb(255,255,204)" width="118" height="84" stroke="none"/>
      <rect x="512" y="260" clip-path="url(#clipPath2)" fill="white" width="1" height="86" stroke="none"/>
      <rect x="513" y="260" clip-path="url(#clipPath2)" fill="white" width="118" height="1" stroke="none"/>
      <rect x="513" y="345" clip-path="url(#clipPath2)" fill="rgb(178,178,142)" width="119" height="1" stroke="none"/>
      <rect x="631" y="260" clip-path="url(#clipPath2)" fill="rgb(178,178,142)" width="1" height="85" stroke="none"/>
    </g>
    <g font-size="13px" stroke-linecap="butt" transform="matrix(1,0,0,1,-160,-97)" text-rendering="geometricPrecision" font-family="sans-serif" shape-rendering="geometricPrecision" font-weight="bold" stroke-miterlimit="1.45">
      <text x="546.5142" xml:space="preserve" y="278.0684" clip-path="url(#clipPath6)" stroke="none">B entity</text>
    </g>
    <g text-rendering="geometricPrecision" shape-rendering="geometricPrecision" transform="matrix(1,0,0,1,-160,-97)">
      <line y2="285" fill="none" x1="513" clip-path="url(#clipPath6)" x2="631" y1="285"/>
      <text stroke-linecap="butt" x="517" y="302.4121" clip-path="url(#clipPath6)" font-family="sans-serif" stroke="none" stroke-miterlimit="1.45" xml:space="preserve">-field1</text>
      <text stroke-linecap="butt" x="517" y="316.5449" clip-path="url(#clipPath6)" font-family="sans-serif" stroke="none" stroke-miterlimit="1.45" xml:space="preserve">-field2</text>
      <line y2="324" fill="none" x1="513" clip-path="url(#clipPath6)" x2="631" y1="324"/>
      <text stroke-linecap="butt" x="517" y="340.6777" clip-path="url(#clipPath6)" font-family="sans-serif" stroke="none" stroke-miterlimit="1.45" xml:space="preserve"> </text>
      <rect x="524" y="566" clip-path="url(#clipPath2)" fill="rgb(255,255,204)" width="118" height="128" stroke="none"/>
      <rect x="523" y="565" clip-path="url(#clipPath2)" fill="white" width="1" height="130" stroke="none"/>
      <rect x="524" y="565" clip-path="url(#clipPath2)" fill="white" width="118" height="1" stroke="none"/>
      <rect x="524" y="694" clip-path="url(#clipPath2)" fill="rgb(178,178,142)" width="119" height="1" stroke="none"/>
      <rect x="642" y="565" clip-path="url(#clipPath2)" fill="rgb(178,178,142)" width="1" height="129" stroke="none"/>
    </g>
    <g font-size="13px" stroke-linecap="butt" transform="matrix(1,0,0,1,-160,-97)" text-rendering="geometricPrecision" font-family="sans-serif" shape-rendering="geometricPrecision" font-weight="bold" stroke-miterlimit="1.45">
      <text x="557.7046" xml:space="preserve" y="582.8184" clip-path="url(#clipPath7)" stroke="none">E entity</text>
    </g>
    <g text-rendering="geometricPrecision" shape-rendering="geometricPrecision" transform="matrix(1,0,0,1,-160,-97)">
      <line y2="590" fill="none" x1="524" clip-path="url(#clipPath7)" x2="642" y1="590"/>
      <text stroke-linecap="butt" x="528" y="607.1621" clip-path="url(#clipPath7)" font-family="sans-serif" stroke="none" stroke-miterlimit="1.45" xml:space="preserve">-field1</text>
      <text stroke-linecap="butt" x="528" y="621.2949" clip-path="url(#clipPath7)" font-family="sans-serif" stroke="none" stroke-miterlimit="1.45" xml:space="preserve">-field2</text>
      <text stroke-linecap="butt" x="528" y="635.4277" clip-path="url(#clipPath7)" font-family="sans-serif" stroke="none" stroke-miterlimit="1.45" xml:space="preserve">-field3</text>
      <text stroke-linecap="butt" x="528" y="649.5605" clip-path="url(#clipPath7)" font-family="sans-serif" stroke="none" stroke-miterlimit="1.45" xml:space="preserve">-field4</text>
      <text stroke-linecap="butt" x="528" y="663.6934" clip-path="url(#clipPath7)" font-family="sans-serif" stroke="none" stroke-miterlimit="1.45" xml:space="preserve">-field5</text>
      <line y2="671" fill="none" x1="524" clip-path="url(#clipPath7)" x2="642" y1="671"/>
      <text stroke-linecap="butt" x="528" y="687.8262" clip-path="url(#clipPath7)" font-family="sans-serif" stroke="none" stroke-miterlimit="1.45" xml:space="preserve"> </text>
      <rect x="328" y="425" clip-path="url(#clipPath2)" fill="rgb(255,255,204)" width="118" height="109" stroke="none"/>
      <rect x="327" y="424" clip-path="url(#clipPath2)" fill="white" width="1" height="111" stroke="none"/>
      <rect x="328" y="424" clip-path="url(#clipPath2)" fill="white" width="118" height="1" stroke="none"/>
      <rect x="328" y="534" clip-path="url(#clipPath2)" fill="rgb(178,178,142)" width="119" height="1" stroke="none"/>
      <rect x="446" y="424" clip-path="url(#clipPath2)" fill="rgb(178,178,142)" width="1" height="110" stroke="none"/>
    </g>
    <g font-size="13px" stroke-linecap="butt" transform="matrix(1,0,0,1,-160,-97)" text-rendering="geometricPrecision" font-family="sans-serif" shape-rendering="geometricPrecision" font-weight="bold" stroke-miterlimit="1.45">
      <text x="360.9778" xml:space="preserve" y="441.8184" clip-path="url(#clipPath8)" stroke="none">C entity</text>
    </g>
    <g text-rendering="geometricPrecision" shape-rendering="geometricPrecision" transform="matrix(1,0,0,1,-160,-97)">
      <line y2="449" fill="none" x1="328" clip-path="url(#clipPath8)" x2="446" y1="449"/>
      <text stroke-linecap="butt" x="332" y="466.1621" clip-path="url(#clipPath8)" font-family="sans-serif" stroke="none" stroke-miterlimit="1.45" xml:space="preserve">-field1</text>
      <text stroke-linecap="butt" x="332" y="480.2949" clip-path="url(#clipPath8)" font-family="sans-serif" stroke="none" stroke-miterlimit="1.45" xml:space="preserve">-field2</text>
      <text stroke-linecap="butt" x="332" y="494.4277" clip-path="url(#clipPath8)" font-family="sans-serif" stroke="none" stroke-miterlimit="1.45" xml:space="preserve">-field3</text>
      <line y2="501" fill="none" x1="328" clip-path="url(#clipPath8)" x2="446" y1="501"/>
      <text stroke-linecap="butt" x="332" y="518.5605" clip-path="url(#clipPath8)" font-family="sans-serif" stroke="none" stroke-miterlimit="1.45" xml:space="preserve"> </text>
      <rect x="419" y="113" clip-path="url(#clipPath2)" fill="rgb(255,255,204)" width="98" height="95" stroke="none"/>
      <rect x="418" y="112" clip-path="url(#clipPath2)" fill="white" width="1" height="97" stroke="none"/>
      <rect x="419" y="112" clip-path="url(#clipPath2)" fill="white" width="98" height="1" stroke="none"/>
      <rect x="419" y="208" clip-path="url(#clipPath2)" fill="rgb(178,178,142)" width="99" height="1" stroke="none"/>
      <rect x="517" y="112" clip-path="url(#clipPath2)" fill="rgb(178,178,142)" width="1" height="96" stroke="none"/>
      <text stroke-linecap="butt" x="423.4863" y="129.3516" clip-path="url(#clipPath9)" font-family="sans-serif" stroke="none" stroke-miterlimit="1.45" xml:space="preserve">&lt;&lt;interface&gt;&gt;</text>
    </g>
    <g font-size="13px" stroke-linecap="butt" transform="matrix(1,0,0,1,-160,-97)" text-rendering="geometricPrecision" font-family="sans-serif" shape-rendering="geometricPrecision" font-weight="bold" stroke-miterlimit="1.45">
      <text x="448.6555" xml:space="preserve" y="153.4512" clip-path="url(#clipPath9)" stroke="none">Entity</text>
    </g>
    <g text-rendering="geometricPrecision" shape-rendering="geometricPrecision" transform="matrix(1,0,0,1,-160,-97)">
      <line y2="161" fill="none" x1="419" clip-path="url(#clipPath9)" x2="517" y1="161"/>
      <text stroke-linecap="butt" x="423" y="177.7949" clip-path="url(#clipPath9)" font-family="sans-serif" stroke="none" stroke-miterlimit="1.45" xml:space="preserve"> </text>
      <line y2="185" fill="none" x1="419" clip-path="url(#clipPath9)" x2="517" y1="185"/>
      <text stroke-linecap="butt" x="423" y="201.9277" clip-path="url(#clipPath9)" font-family="sans-serif" stroke="none" stroke-miterlimit="1.45" xml:space="preserve"> </text>
      <text stroke-linecap="butt" x="599.5107" y="158.7188" clip-path="url(#clipPath2)" font-family="sans-serif" stroke="none" stroke-miterlimit="1.45" xml:space="preserve">And other</text>
      <text stroke-linecap="butt" x="594.3105" y="172.8516" clip-path="url(#clipPath2)" font-family="sans-serif" stroke="none" stroke-miterlimit="1.45" xml:space="preserve">interfaces...</text>
      <path fill="none" stroke-miterlimit="1.45" d="M354 565.2871 L354 555 L242 555 L242 202.7506" clip-path="url(#clipPath2)" stroke-linecap="butt"/>
    </g>
    <g stroke-linecap="butt" transform="matrix(1,0,0,1,-160,-97)" fill="white" text-rendering="geometricPrecision" shape-rendering="geometricPrecision" stroke="white" stroke-miterlimit="1.45">
      <path d="M242 187.7506 L236 203.7506 L248 203.7506 Z" stroke="none" clip-path="url(#clipPath2)"/>
      <path fill="none" d="M242 187.7506 L236 203.7506 L248 203.7506 Z" clip-path="url(#clipPath2)" stroke="black"/>
      <path fill="none" d="M358 266.0088 L358 248 L242 248 L242 202.7177" clip-path="url(#clipPath2)" stroke="black"/>
      <path d="M242 187.7177 L236 203.7177 L248 203.7177 Z" clip-path="url(#clipPath2)" stroke="none"/>
      <path fill="none" d="M242 187.7177 L236 203.7177 L248 203.7177 Z" clip-path="url(#clipPath2)" stroke="black"/>
      <path fill="none" d="M530 260.5303 L530 248 L242 248 L242 202.7177" clip-path="url(#clipPath2)" stroke="black"/>
      <path d="M242 187.7177 L236 203.7177 L248 203.7177 Z" clip-path="url(#clipPath2)" stroke="none"/>
      <path fill="none" d="M242 187.7177 L236 203.7177 L248 203.7177 Z" clip-path="url(#clipPath2)" stroke="black"/>
      <path fill="none" d="M550 565.2061 L550 554 L242 554 L242 202.7566" clip-path="url(#clipPath2)" stroke="black"/>
      <path d="M242 187.7566 L236 203.7566 L248 203.7566 Z" clip-path="url(#clipPath2)" stroke="none"/>
      <path fill="none" d="M242 187.7566 L236 203.7566 L248 203.7566 Z" clip-path="url(#clipPath2)" stroke="black"/>
      <path fill="none" d="M356 424.2549 L356 411 L242 411 L242 202.7774" clip-path="url(#clipPath2)" stroke="black"/>
      <path d="M242 187.7774 L236 203.7774 L248 203.7774 Z" clip-path="url(#clipPath2)" stroke="none"/>
      <path fill="none" d="M242 187.7774 L236 203.7774 L248 203.7774 Z" clip-path="url(#clipPath2)" stroke="black"/>
      <path fill="none" stroke-dasharray="6,2" d="M387 565.2487 L387 544 L652 544 L652 234 L468 234 L468 224.7382" clip-path="url(#clipPath2)" stroke="black"/>
      <path stroke-dasharray="6,2" d="M468 209.7382 L462 225.7382 L474 225.7382 Z" clip-path="url(#clipPath2)" stroke="none"/>
      <path fill="none" d="M468 209.7382 L462 225.7382 L474 225.7382 Z" clip-path="url(#clipPath2)" stroke="black"/>
      <path fill="none" stroke-dasharray="6,2" d="M387 424.226 L387 390 L651 390 L651 234 L468 234 L468 224.7382" clip-path="url(#clipPath2)" stroke="black"/>
      <path stroke-dasharray="6,2" d="M468 209.7382 L462 225.7382 L474 225.7382 Z" clip-path="url(#clipPath2)" stroke="none"/>
      <path fill="none" d="M468 209.7382 L462 225.7382 L474 225.7382 Z" clip-path="url(#clipPath2)" stroke="black"/>
      <path fill="none" stroke-dasharray="6,2" d="M387 266.0007 L387 234 L468 234 L468 224.7382" clip-path="url(#clipPath2)" stroke="black"/>
      <path stroke-dasharray="6,2" d="M468 209.7382 L462 225.7382 L474 225.7382 Z" clip-path="url(#clipPath2)" stroke="none"/>
      <path fill="none" d="M468 209.7382 L462 225.7382 L474 225.7382 Z" clip-path="url(#clipPath2)" stroke="black"/>
      <path fill="none" stroke-dasharray="6,2" d="M572 260.5037 L572 234 L468 234 L468 224.7382" clip-path="url(#clipPath2)" stroke="black"/>
      <path stroke-dasharray="6,2" d="M468 209.7382 L462 225.7382 L474 225.7382 Z" clip-path="url(#clipPath2)" stroke="none"/>
      <path fill="none" d="M468 209.7382 L462 225.7382 L474 225.7382 Z" clip-path="url(#clipPath2)" stroke="black"/>
      <path fill="none" stroke-dasharray="6,2" d="M583 565.2677 L583 544 L652 544 L652 234 L468 234 L468 224.7382" clip-path="url(#clipPath2)" stroke="black"/>
      <path stroke-dasharray="6,2" d="M468 209.7382 L462 225.7382 L474 225.7382 Z" clip-path="url(#clipPath2)" stroke="none"/>
      <path fill="none" d="M468 209.7382 L462 225.7382 L474 225.7382 Z" clip-path="url(#clipPath2)" stroke="black"/>
    </g>
  </g>
</svg>
